@startuml
class EffectivePeriod {
effectivePeriodKey:String
activeIndicator:Boolean
exclusiveIndicator:Boolean
startDateTime:Date
completeDateTime:Date
durationUomType:DurationUOMTypes
durationValue:String
recurUomType:DurationUOMTypes
recurCount:String
recurCriteria:String
recurIndicator:Boolean
timeslot:TimeSlot
}
class Identifier {
identifierId:String
identifierKey:String
context:String
value:String
detail:String
identifierType:String
}
class PartName {
partNameId:String
partNameKey:String
description:String
partNameType:PartNameTypes
}
class PartyIdentifier {
partyIdentifierId:String
partyIdentifierKey:String
partyKey:String
partyIdentifierType:String
context:String
partyRelationshipTypes:List<PartyRelationshipTypes>
party:Identifier
occurrenceDateTime:Date
duration:EffectivePeriod
}
class SuperSession {
superSessionId:String
superSessionKey:String
prevPartNames:List<PartName>
newPartNames:List<PartName>
partOrderConfigType:PartOrderConfigTypes
quantity:String
quantityUomType:ProductPackageTypes
productConsumptionType:ProductConsumptionTypes
warehouses:List<Identifier>
productStageType:ProductStageTypes
partyIdentifiers:List<PartyIdentifier>
partStatusTypes:List<PartStatusTypes>
}
class DurationUOMTypes #FAFF91 {
BI_WEEKS
CUSTOM
DAYS
DAY_OF_MONTH
HOURS
MINUTES
MONTHS
MULTI_YEARS
NONE
OCCURRENCE
OTHER
QUARTERS
SEMI_MONTHS
SEMI_YEARS
UNLIMITED
WEEKS
YEARS
}
class PartNameTypes #FAFF91 {
AFTERMARKET
CORE
GENERIC
MANUFACTURING
MARKETING
OEM
REMANUFACTURING
SUPERSEDED
SUPERSEDING
}
class PartOrderConfigTypes #FAFF91 {
MULTIPLE_MERGE
MULTIPLE_SPLIT
NOT_AVAILABLE
SINGLE
VARIABLE_MERGE
VARIABLE_SPLIT
}
class PartStatusTypes #FAFF91 {
CROSS_DOCK
DISASSEMBLE
DOCUMENT_RECEIPT
DOCUMENT_SHIPMENT
INSPECT_INBOUND
KIT_ASSEMBLE
LABEL_TAG
LOAD_SHIPMENT
PACK
PICK
PUTAWAY
QUARANTINE_INBOUND
RECEIVE
REFURBISH_REPAIR
RETURN_INSPECT
RETURN_PUTAWAY
RETURN_RECEIVE
SCRAP_DISPOSE
SHIP
STAGE_SHIPMENT
SUPERSEDE
SUPERSEDED
VALUE_ADDED_SERVICE
}
class PartyRelationshipTypes #FAFF91 {
ACCOUNTABLE
ACQUAINTANCE
ACTOR
ADVISOR_CONSULTANT
AFFILIATE
AGENT
ASSOCIATE
AUDITOR
BENEFICIARY
BRANCH
BUSINESS_PARTNER
BUYER
CAREGIVER
CHILD
COMPOSED_IN
CONSULT
CONTRACTOR
CORPORATION
COST_CENTER
CO_SIGNER
CO_WORKER
CREDIT_CARD_PROVIDER
CUSTODIAN
CUSTOMER
DEALERSHIP
DEPARTMENT
DEPENDENT
DISTRIBUTOR
DIVISION
EMERGENCY_CONTACT
EMPLOYEE
EMPLOYER
EXECUTE
EX_SPOUSE
FAMILY_MEMBER
FINANCIAL_ADVISOR
FRANCHISE
FREIGHT_FORWARDER
FRIEND
GIFT_TO
GOVERNMENT_AGENCY
GROUP
GUARANTOR
HEIR
INSURED
INSURER
INTERNAL_ORGANIZATION
INVESTOR
JOINT_VENTURE
LEGAL_GUARDIAN
LESSEE
LESSOR
LOAN_PROVIDER
MANAGER
MANUFACTURER
MEMBERSHIP
MENTEE
MENTOR
NON_PROFIT
NOTIFY
OTHER
OTHER_FAMILY
OWNER
PARENT
PARTNER_ORGANIZATION
PART_OF
PAYEE
PAYER
POLITICAL_AFFILIATE
PROFESSIONAL_CONTACT
PROXY
RECIPIENT
REFERENCE_PERSONAL
REFERENCE_PROFESSIONAL
REGULATOR
REMOVE
RESPONSIBLE
ROMANTIC_PARTNER
SECTION
SELF
SERVICE_CONSUMER
SERVICE_PROVIDER
SHAREHOLDER
SHIP_TO
SIBLING
SOLD_TO
SPOUSE
STORE
SUBSIDIARY
SUPPLIER
TEAM
THIRD_PARTY
TRANSACTION_FROM
TRANSACTION_TO
TRUSTEE_PERSON
UNDERWRITER
VENDOR
}
class ProductConsumptionTypes #FAFF91 {
PRE_PRODUCTION
SCRAP_STRATEGY
USE_UP_STRATEGY
}
class ProductPackageTypes #FAFF91 {
BUNDLE
CASE
COMPONENT
EACH
GROUP
ITEM
KIT
MIXED_BUNDLE
OCCURRENCE
PACK
PALLET
PRODUCT
PURE_BUNDLE
SERVICE
SET
SKU
STANDALONE
SUBSCRIPTION
UNIT
}
class ProductStageTypes #FAFF91 {
ACTIVE
DAMAGED
DECOMMISSIONED
DISCONTINUED
FINAL_SUPERSESSION
OBSOLETE
PENDING_APPROVAL
PENDING_OBSOLESCENCE
PHASED_OUT
PRELIMINARY_SUPERSESSION
PRE_PRODUCTION
PRE_RELEASE
PROPOSED
RECALLED
SOURCING_CHALLENGE
UNDER_REVIEW
}
DurationUOMTypes -- EffectivePeriod
EffectivePeriod -- PartyIdentifier
Identifier -- PartyIdentifier
Identifier *-- SuperSession
PartNameTypes -- PartName
PartName *-- SuperSession
PartOrderConfigTypes -- SuperSession
PartStatusTypes *-- SuperSession
PartyIdentifier *-- SuperSession
PartyRelationshipTypes *-- PartyIdentifier
ProductConsumptionTypes -- SuperSession
ProductPackageTypes -- SuperSession
ProductStageTypes -- SuperSession
@enduml
