@startuml
class Identifier {
identifierId:String
identifierKey:String
context:String
value:String
detail:String
identifierType:String
}
class PartIdentifier {
partIdentifierKey:String
partIdentifierId:String
partIdentifierType:PartIdentifierTypes
partIdentifierValue:String
description:String
identifiers:List<Identifier>
partNames:List<PartName>
}
class PartName {
partNameId:String
partNameKey:String
description:String
partNameType:PartNameTypes
}
class PartPriceCriteria {
partPriceCriteriaId:String
partPriceCriteriaKey:String
minPrice:String
maxPrice:String
currency:String
coreChargeApplicable:Boolean
warrantyTypes:List<WarrantyTypes>
priceTypes:List<PriceTypes>
}
class PartSearch {
partSearchId:String
partSearchKey:String
partSearchCriteriaKey:String
searchStatus:String
resultsCount:Integer
partSearchResults:List<PartSearchResult>
warehouses:List<Identifier>
}
class PartSearchResult {
partSearchResultId:String
partSearchResultKey:String
partKey:String
isMasterRecord:Boolean
partIdentifiers:List<PartIdentifier>
partNames:List<PartName>
partConditionType:PartConditionTypes
quantityAvailable:Integer
primaryWarehouse:Identifier
partPrice:PartPriceCriteria
billOfMaterial:Identifier
partStatusType:PartStatusTypes
estimatedAvailabilityDate:Date
originLatitude:String
originLongitude:String
shippingMethodTypes:List<ShippingMethodTypes>
}
class PartConditionTypes #FAFF91 {
COLLECTIBLE
DAMAGED_COSMETIC
DAMAGED_MINOR
NEW
NEW_OLD_STOCK
OTHER
REBUILT
REFURBISHED
REMANUFACTURED
SALVAGE
SCRAP
USED
}
class PartIdentifierTypes #FAFF91 {
ALT_CODE
CATALOG_CODE
CONFIG_CODE
COUNTRY_OF_ORIGIN_CODE
ENGINE_CODE
ISBN
MAKE_CODE
MARKET_DIVISION_CODE
MFR_CODE
MODEL_CODE
MPN
NAME
NUMBER
OTHER
PREFIX
PRODUCT_CODE
SKU
STOCK_NBR
STYLE_CODE
SUB_MODEL_CODE
TRANSMISSION_CODE
TRIM_CODE
UNIV_CODE
UPCA
UPCE
VIN
YEAR_CODE
}
class PartNameTypes #FAFF91 {
AFTERMARKET
CORE
GENERIC
MANUFACTURING
MARKETING
OEM
REMANUFACTURING
SUPERSEDED
SUPERSEDING
}
class PartStatusTypes #FAFF91 {
CROSS_DOCK
DISASSEMBLE
DOCUMENT_RECEIPT
DOCUMENT_SHIPMENT
INSPECT_INBOUND
KIT_ASSEMBLE
LABEL_TAG
LOAD_SHIPMENT
PACK
PICK
PUTAWAY
QUARANTINE_INBOUND
RECEIVE
REFURBISH_REPAIR
RETURN_INSPECT
RETURN_PUTAWAY
RETURN_RECEIVE
SCRAP_DISPOSE
SHIP
STAGE_SHIPMENT
SUPERSEDE
SUPERSEDED
VALUE_ADDED_SERVICE
}
class PriceTypes #FAFF91 {
ACTUAL
AFFILIATE
BUNDLE
CONTRACT
CORE
CUSTOM
CUSTOMER
DEALER
DISCOUNT
ESTIMATED
FLAT
ITEMIZED
LANDED
LICENSED
LIST
LOCATION
METERED
MONEY
MSRP
NET
ONLINE
OTHER
PERCENT
PER_UNIT
PROMOTIONAL
PURCHASE
QUANTITY
REGION
RETAIL
SALE
SEAT
STAIR_STEP
STANDARD
STORE
SUBSCRIPTION
TIER_GRADUATED
TIER_VOLUME
TRADE
USAGE
VOLUME
WHOLESALE
}
class ShippingMethodTypes #FAFF91 {
AIR_FREIGHT
CURBSIDE_PICKUP
DOWNLOAD
ECONOMY
ECO_FRIENDLY
EXPRESS
FLAT_RATE
FREE_SHIPPING
FREIGHT
GROUND
HAZMAT
HYBRID_SHIPPING
INTERNATIONAL_EXPEDITED
INTERNATIONAL_STANDARD
LOCAL_DELIVERY
LOCKER_DELIVERY
OCEAN_FREIGHT
OVERNIGHT
PALLET_DELIVERY
PICKUP
RAIL_FREIGHT
SAME_DAY
TABLE_RATE
TEMPERATURE_CONTROLLED
THREE_DAY_SELECT
TWO_DAY_AIR
}
class WarrantyTypes #FAFF91 {
CERTIFIED_PRE_OWNED
CORROSION
DEALER
EXTENDED
HYBRID_EV_COMPONENT
LIFETIME
LIMITED
MANUFACTURER
NO_WARRANTY
OTHER
POWERTRAIN
}
Identifier -- PartSearchResult
Identifier *-- PartIdentifier
Identifier *-- PartSearch
PartConditionTypes -- PartSearchResult
PartIdentifierTypes -- PartIdentifier
PartIdentifier *-- PartSearchResult
PartNameTypes -- PartName
PartName *-- PartIdentifier
PartName *-- PartSearchResult
PartPriceCriteria -- PartSearchResult
PartSearchResult *-- PartSearch
PartStatusTypes -- PartSearchResult
PriceTypes *-- PartPriceCriteria
ShippingMethodTypes *-- PartSearchResult
WarrantyTypes *-- PartPriceCriteria
@enduml
