@startuml
class BillOfMaterial {
billOfMaterialKey:String
billOfMaterialId:String
identifiers:List<PartIdentifier>
productIdentifier:String
revision:String
effectiveDate:Date
productStatusType:ProductStatusTypes
components:List<BomComponent>
specification:PartSpecification
}
class BomComponent {
bomComponentId:String
bomComponentKey:String
quantity:String
textualDetails:List<TextualDetail>
componentSpecification:PartSpecification
componentIdentifiers:List<PartIdentifier>
revision:String
effectivePeriod:EffectivePeriod
productStatusType:ProductStatusTypes
}
class EffectivePeriod {
effectivePeriodKey:String
activeIndicator:Boolean
exclusiveIndicator:Boolean
startDateTime:Date
completeDateTime:Date
durationUomType:DurationUOMTypes
durationValue:String
recurUomType:DurationUOMTypes
recurCount:String
recurCriteria:String
recurIndicator:Boolean
timeslot:TimeSlot
}
class FinancialSplit {
financialSplitId:String
financialSplitKey:String
priceName:String
price:Price
controlAccount:ControlAccount
financialCategories:List<FinancialCategory>
ledgerActionType:LedgerActionTypes
ledgerTypes:FinancialTransactionTypes
priceType:ProductPriceItemTypes
}
class GeographicBoundary {
geographicBoundaryId:String
geographicBoundaryKey:String
geographicType:LocationTypes
distanceMax:String
distanceMin:String
distanceType:UnitOfMeasureTypes
name:String
vertices:String
description:String
centerLatitude:String
centerLongitude:String
}
class Identifier {
identifierId:String
identifierKey:String
context:String
value:String
detail:String
identifierType:String
}
class LifecycleEvent {
lifecycleEventId:String
lifecycleEventKey:String
actorHref:String
actorId:String
actorName:String
lifecycleEventType:LifecycleEventTypes
occurrenceDate:Date
resourceHref:String
resourceIdentifier:String
detailName:String
detailDesc:String
detailValue:String
detailKey:String
detailCode:String
}
class Part {
partId:String
partKey:String
partConditionGradeType:PartConditionGradeTypes
partConditionType:PartConditionTypes
lastInventoryDate:Date
prices:List<Price>
partLifecycles:List<PartLifecycle>
partStatusType:PartStatusTypes
identifiers:List<Identifier>
partIdentifiers:List<PartIdentifier>
controlAccount:ControlAccount
partStatusTypes:List<PartStatusTypes>
partEvents:List<PartEvent>
warehouse:Warehouse
partLocation:PartLocation
}
class PartCategory {
partCategoryId:String
partCategoryKey:String
occurrenceDateTime:Date
rootIndicator:Boolean
partCategories:List<PartCategory>
textualDetails:List<TextualDetail>
}
class PartIdentifier {
partIdentifierKey:String
partIdentifierId:String
partIdentifierType:PartIdentifierTypes
partIdentifierValue:String
description:String
identifiers:List<Identifier>
partNames:List<PartName>
}
class PartInventory {
partMasterId:String
partInventoryId:String
partInventoryKey:String
lastInventoryDate:Date
inventoryStatusType:InventoryStatusTypes
prices:List<Price>
parts:List<Part>
identifiers:List<Identifier>
partInventoryEvents:List<PartInventoryEvent>
partInventoryMetrics:List<PartInventoryMetric>
partIdentifiers:List<PartIdentifier>
controlAccount:List<Identifier>
warehouse:List<Identifier>
}
class PartInventoryEvent {
warehouseEventKey:String
occurrenceDateTime:Date
actorId:String
actorName:String
actorHref:String
eventCategory:String
eventAction:String
eventLabel:String
partInventoryActionType:PartInventoryOrderTypes
}
class PartInventoryMetric {
uomValue:String
partInventoryMetricType:PartInventoryMetricTypes
metricValue:String
}
class PartLifecycle {
partLifecycleId:String
partLifecycleKey:String
isSuperseded:Boolean
reason:String
partStatusTypes:List<PartStatusTypes>
superSessions:List<SuperSession>
}
class PartMaster {
partMasterId:String
partMasterKey:String
productStageTypes:ProductStageTypes
lifecycleEventType:LifecycleEventTypes
partCategories:List<PartCategory>
pricePlans:List<PricePlan>
masterIdentifiers:List<PartIdentifier>
textualDetails:List<TextualDetail>
partInventories:List<PartInventory>
partNames:List<PartName>
partMasterDetail:PartMasterProfile
unitOfMeasures:List<UnitOfMeasure>
partMasterRegulatory:PartMasterRegulatory
partLifecycles:List<PartLifecycle>
identifiers:List<Identifier>
partyIdentifiers:List<PartyIdentifier>
billOfMaterial:BillOfMaterial
}
class PartMasterProfile {
partMasterProfileId:String
partMasterProfileKey:String
salesStatusType:SalesStatusTypes
exchangeCode:String
isReturnable:Boolean
isConfigurable:Boolean
partSpecifications:List<PartSpecification>
countryOfOrigin:String
identifiers:List<Identifier>
}
class PartMasterRegulatory {
partMasterRegulatoryId:String
partMasterRegulatoryKey:String
isHazardous:Boolean
isEnvironmentalRegulated:Boolean
exportControlClassNumber:String
hazardClassTypes:List<HazardClassTypes>
unNaNumber:String
packingGroup:String
sdsVersion:String
sdsExternalLink:String
regulatoryNotes:String
partHazardPackingGroupType:PartHazardPackingGroupTypes
}
class PartName {
partNameId:String
partNameKey:String
description:String
partNameType:PartNameTypes
}
class PartSpecification {
partNameType:PartNameTypes
partConditionTypes:List<PartConditionTypes>
partConditionGradeTypes:List<PartConditionGradeTypes>
unitOfMeasures:List<UnitOfMeasure>
identifiers:List<Identifier>
minimumOrderQuantity:Integer
fixedOrderQuantity:Integer
packageQuantity:Integer
itemQuantity:Integer
productPackageType:ProductPackageTypes
}
class Party {
alias:String
comments:String
contactMethods:List<ContactMethod>
contactMethodsHref:String
countryCode:String
fullName:String
identifiers:List<Identifier>
identifiersHref:String
orgIndicator:Boolean
orgProfilesHref:String
partyKey:String
partyTypes:List<PartyTypes>
preferredLanguageCode:String
preferredName:String
privaciesHref:String
specialRemarksDescription:String
partyId:String
persons:List<Person>
orgProfiles:List<OrgProfile>
partyServiceTypes:List<PartyServiceTypes>
garage:Garage
}
class PartyIdentifier {
partyIdentifierId:String
partyIdentifierKey:String
partyIdentifierType:String
context:String
partyRelationshipTypes:List<PartyRelationshipTypes>
party:Party
occurrenceDateTime:Date
duration:EffectivePeriod
}
class Price {
displayValue:String
locale:String
value:String
priceKey:String
taxIncludedIndicator:Boolean
currencyCode:String
priceId:String
endDate:Date
effectiveDate:Date
priceTypes:List<PriceTypes>
}
class PricePlan {
pricePlanId:String
pricePlanKey:String
priceDescription:String
schedules:List<ProductSchedule>
lifecycleEventType:LifecycleEventTypes
priceSensitivity:PriceSensitivity
priceClassTypes:List<PriceClassTypes>
locale:String
currency:String
financialSplits:List<FinancialSplit>
partyIdentifiers:List<PartyIdentifier>
geographicBoundaries:List<GeographicBoundary>
priceGroup:String
priceTypes:List<PriceTypes>
priceTiers:List<PriceTier>
lifecycleEvents:List<LifecycleEvent>
}
class PriceSensitivity {
priceSensitivityId:String
priceSensitivityKey:String
sensitivityLevelTypes:PriceSensitivityTypes
quantityLevelTypes:PriceSensitivityTypes
description:String
}
class PriceTier {
priceTierId:String
priceTierKey:String
pricePlanKey:String
priceValueGroup:String
priceValueCode:String
paymentCategoryType:PaymentCategoryTypes
payeeType:PayeeTypes
priceClassTypes:List<PriceClassTypes>
priceSensitivity:PriceSensitivity
}
class ProductSchedule {
productScheduleKey:String
effectivePeriod:EffectivePeriod
scheduleType:ScheduleTypes
startQuantity:String
endQuantity:String
geographicBoundaries:List<GeographicBoundary>
inServiceDistance:String
distanceUomType:NarrativeUomTypes
}
class SuperSession {
prevPartNames:List<PartName>
newPartNames:List<PartName>
partOrderConfigType:PartOrderConfigTypes
quantity:String
productConsumptionType:ProductConsumptionTypes
warehouses:List<Warehouse>
productStageType:ProductStageTypes
partyIdentifiers:List<PartyIdentifier>
partStatusTypes:List<PartStatusTypes>
}
class TextualDetail {
textualDetailKey:String
textualDetailId:String
shortDescription:String
textKey:String
name:String
value:String
identifiers:List<Identifier>
label:String
altText:String
textualDetailCode:String
uomDisplay:String
uomCode:String
}
class UnitOfMeasure {
unitOfMeasure:EnumBase
uomValue:String
quantity:String
uomQuantityCategoryType:UOMQuantityCategoryTypes
}
class DurationUOMTypes #FAFF91 {
BI_WEEKS
CUSTOM
DAYS
DAY_OF_MONTH
HOURS
MINUTES
MONTHS
MULTI_YEARS
NONE
OCCURRENCE
OTHER
QUARTERS
SEMI_MONTHS
SEMI_YEARS
UNLIMITED
WEEKS
YEARS
}
class FinancialTransactionTypes #FAFF91 {
ACCRUED_EXPENSE
AMORTIZATION
ASSETS
BANK_CHARGE
CAPITALIZATION
CASH_INFLOW
CASH_OUTFLOW
COGS
CONTRA_ASSET
CREDIT
CUSTOM
DEBIT
DEFERRED_REVENUE
DEPRECIATION
DISBURSEMENT
DIVIDEND
EQUITY
EXPENSE
FEE
INCOME
INTANGIBLE_ASSET
INTEREST_EXPENSE
INTEREST_INCOME
INVENTORY
INVESTMENT
INVOICE
LIABILITY
LOAN_PAYABLE
LOAN_RECEIVABLE
OBLIGATION_CREDIT
OBLIGATION_NOTE
OBLIGATION_OTHER
OBLIGATION_TAX
OTHER
PREPAID_EXPENSE
PROVISION
REBATE
RECEIPT
RECEIVABLE_RECEIPT
RETURNS
SALES_DISCOUNT
SERVICE
TAX_PAYABLE
TRANSFER
VARIANCE
}
class HazardClassTypes #FAFF91 {
CORROSIVES
EXPLOSIVES
FLAMMABLE_LIQUIDS
FLAMMABLE_SOLIDS
GASES
MISCELLANEOUS_DANGEROUS_GOODS
ORM_D
OXIDIZING_SUBSTANCES
RADIOACTIVE_MATERIAL
TOXIC_INFECTIOUS_SUBSTANCES
}
class InventoryStatusTypes #FAFF91 {
ASSIGNED_BY_MANUFACTURER
AVAILABLE
DAMAGED
DISPOSAL
IN_TRANSIT
ON_CENTRAL_LOT
ON_DEALER_LOT
ON_HOLD
ON_ORDER
PREPARATION
RECALL_HOLD
RECEIVED
RESERVED
RETURNED
SALES_HOLD
SERVICE_HOLD
SOLD
STOCKED_IN
UNAVAILABLE
UNKNOWN
WHOLESALE
}
class LedgerActionTypes #FAFF91 {
CREDIT
CUSTOM
DEBIT
OTHER
TRANSFER
}
class LifecycleEventTypes #FAFF91 {
ACCESS_ALLOWED
ACCESS_DENIED
CANCELLED
CLOSED
CREATED
DEAD
DELETE_HARD
DELETE_SOFT
FAILED
INITIALIZED
INITIALIZING
PROCESSED
PROCESSING
QUALIFIED
SUBMITTED
UPDATED
VALIDATED
}
class LocationTypes #FAFF91 {
ADDRESS
BOROUGH
BOUNDARY
CITY
COUNTRY
COUNTY
DISTRICT
FEDERAL
GPS
LOCALITY
NO_PREFERENCE
PARISH
POSTAL
PROVINCE
REGION
STATE
STREET
SUB_ADMIN_AREA
SUB_LOCALITY
TELEMATICS
VILLAGE
WAREHOUSE
}
class NarrativeUomTypes #FAFF91 {
AMPERE
ARRAY
BAR
BINARY
BI_WEEKS
BOOLEAN
CELSIUS
CENTIMETER
CODE
CUBIC_METER
CURRENCY
CUSTOM
DATE
DATE_TIME
DAYS
DAY_OF_MONTH
DEGREES
DESC
DOUBLE
DURATION
FAHRENHEIT
FATHOM
FEET
FLOAT
FLUID_OUNCE
GALLON
GRAMS
GROUP
G_FORCE
HOURS
INCH
INT32
INT64
INTEGER
KELVIN
KEY
KG
KILOWATT_HOUR
KM
KPA
LABEL
LB
LITER
METER
MI
MILES
MILLIMETER
MINUTES
MONTHS
MULTI_YEARS
NAUTICAL
NONE
NUMBER
OBJECT
OCCURRENCE
OHM
OTHER
OZ
PERCENT
POINTS
PROTECTED_TEXT
PSI
QUARTERS
RANKINE
RPM
SECONDS
SEMI_MONTHS
SEMI_YEARS
STRING
TEXT
TIME
TONS
UNLIMITED
VOLT
WATT
WEEKS
YARD
YEARS
}
class PartConditionGradeTypes #FAFF91 {
ACCEPTABLE
DAMAGED
EXCELLENT
FAIR
GOOD
LIKE_NEW
OTHER
POOR
UNGRADED
VERY_GOOD
}
class PartConditionTypes #FAFF91 {
COLLECTIBLE
DAMAGED_COSMETIC
DAMAGED_MINOR
NEW
NEW_OLD_STOCK
OTHER
REBUILT
REFURBISHED
REMANUFACTURED
SALVAGE
SCRAP
USED
}
class PartHazardPackingGroupTypes #FAFF91 {
I
II
III
OTHER
}
class PartIdentifierTypes #FAFF91 {
ALT_CODE
CATALOG_CODE
CONFIG_CODE
COUNTRY_OF_ORIGIN_CODE
ENGINE_CODE
ISBN
MAKE_CODE
MARKET_DIVISION_CODE
MFR_CODE
MODEL_CODE
MPN
NAME
NUMBER
OTHER
PREFIX
PRODUCT_CODE
SKU
STOCK_NBR
STYLE_CODE
SUB_MODEL_CODE
TRANSMISSION_CODE
TRIM_CODE
UNIV_CODE
UPCA
UPCE
VIN
YEAR_CODE
}
class PartInventoryMetricTypes #FAFF91 {
AVERAGE_WEEKLY_USAGE_QUANTITY
CARRYING_COST
DAYS_OF_SUPPLY
FILL_RATE
INVENTORY_TURNOVER_RATE
INVENTORY_VALUE
LAST_SALE_DATE
LEAD_TIME
LOST_SALES_REVENUE
OTHER
QUANTITY_AGED
QUANTITY_BEST_STOCKING_LEVEL
QUANTITY_DAILY_USAGE
QUANTITY_DEALER_PART_STOCKING
QUANTITY_FORECAST
QUANTITY_ON_HAND
QUANTITY_ON_ORDER
QUANTITY_REORDER_POINT
QUANTITY_SIX_MONTH_SALES
QUANTITY_TWELVE_MONTH_LOST_SALES
QUANTITY_TWELVE_MONTH_SALES
QUANTITY_USER_MAX
QUANTITY_USER_MIN
SUPERSEDED_QUANTITY
SUPERSEDING_QUANTITY
}
class PartInventoryOrderTypes #FAFF91 {
ALLOCATE_RESERVE
BACK_ORDERED
CANCELLED
CONSOLIDATE_INVENTORY
CYCLE_COUNT
DELIVERED
DISPOSITION
INBOUND
LOCATE
MAINTENANCE
NO_LONGER_AVAILABLE
ORDER_FULFILLMENT
OUTBOUND
PENDING
PRE_ORDER
PROCESSING
RECEIVING
RELOCATE
REPLENISH
RETURNED_ORDER
RETURNS_ACTIONS
REVERSE_LOGISTICS
SHIPPED
STOCK_ROTATION
STORAGE
WAREHOUSE_MANAGEMENT
}
class PartNameTypes #FAFF91 {
AFTERMARKET
CORE
GENERIC
MANUFACTURING
MARKETING
OEM
REMANUFACTURING
SUPERSEDED
SUPERSEDING
}
class PartOrderConfigTypes #FAFF91 {
MULTIPLE_MERGE
MULTIPLE_SPLIT
NOT_AVAILABLE
SINGLE
VARIABLE_MERGE
VARIABLE_SPLIT
}
class PartStatusTypes #FAFF91 {
CROSS_DOCK
DISASSEMBLE
DOCUMENT_RECEIPT
DOCUMENT_SHIPMENT
INSPECT_INBOUND
KIT_ASSEMBLE
LABEL_TAG
LOAD_SHIPMENT
PACK
PICK
PUTAWAY
QUARANTINE_INBOUND
RECEIVE
REFURBISH_REPAIR
RETURN_INSPECT
RETURN_PUTAWAY
RETURN_RECEIVE
SCRAP_DISPOSE
SHIP
STAGE_SHIPMENT
SUPERSEDE
SUPERSEDED
VALUE_ADDED_SERVICE
}
class PartyRelationshipTypes #FAFF91 {
ACCOUNTABLE
ACQUAINTANCE
ACTOR
ADVISOR_CONSULTANT
AFFILIATE
AGENT
ASSOCIATE
AUDITOR
BENEFICIARY
BRANCH
BUSINESS_PARTNER
BUYER
CAREGIVER
CHILD
COMPOSED_IN
CONSULT
CONTRACTOR
CORPORATION
COST_CENTER
CO_SIGNER
CO_WORKER
CREDIT_CARD_PROVIDER
CUSTODIAN
CUSTOMER
DEALERSHIP
DEPARTMENT
DEPENDENT
DISTRIBUTOR
DIVISION
EMERGENCY_CONTACT
EMPLOYEE
EMPLOYER
EXECUTE
EX_SPOUSE
FAMILY_MEMBER
FINANCIAL_ADVISOR
FRANCHISE
FREIGHT_FORWARDER
FRIEND
GIFT_TO
GOVERNMENT_AGENCY
GROUP
GUARANTOR
HEIR
INSURED
INSURER
INTERNAL_ORGANIZATION
INVESTOR
JOINT_VENTURE
LEGAL_GUARDIAN
LESSEE
LESSOR
LOAN_PROVIDER
MANAGER
MANUFACTURER
MEMBERSHIP
MENTEE
MENTOR
NON_PROFIT
NOTIFY
OTHER
OTHER_FAMILY
OWNER
PARENT
PARTNER_ORGANIZATION
PART_OF
PAYEE
PAYER
POLITICAL_AFFILIATE
PROFESSIONAL_CONTACT
PROXY
RECIPIENT
REFERENCE_PERSONAL
REFERENCE_PROFESSIONAL
REGULATOR
REMOVE
RESPONSIBLE
ROMANTIC_PARTNER
SECTION
SELF
SERVICE_CONSUMER
SERVICE_PROVIDER
SHAREHOLDER
SHIP_TO
SIBLING
SOLD_TO
SPOUSE
STORE
SUBSIDIARY
SUPPLIER
TEAM
THIRD_PARTY
TRANSACTION_FROM
TRANSACTION_TO
TRUSTEE_PERSON
UNDERWRITER
VENDOR
}
class PartyServiceTypes #FAFF91 {
BODY_SHOP_VENDOR
CRM_VENDOR
DMS_VENDOR
FEE_VENDOR
FINANCE_VENDOR
FLEET_SERVICES
INSURANCE_VENDOR
IT_VENDOR
MARKETING_VENDOR
PARTS_VENDOR
PRODUCT_VENDOR
REBATE_VENDOR
REPAIR_VENDOR
SERVICE_CONTRACT_VENDOR
TAX_VENDOR
TIRE_VENDOR
TITLE_AND_REGISTRATION_VENDOR
UNKNOWN
WEBSITE_VENDOR
}
class PartyTypes #FAFF91 {
CONTRACTOR
CUSTOMER
DEALER
DEVICE
DRIVER
EMPLOYEE
FINANCE
FLEET
GOVERNMENT
ORGANIZATION
PARTNER
PROSPECT
PUBLIC
SERVICE
SUPPLIER
TAX
VENDOR
}
class PayeeTypes #FAFF91 {
BUYER
COMMUNITY
CUSTOMER
DEALER
DEALER_GROUP
FINANCE_COMPANY
GOVERNMENT_AGENCY
INSURANCE_PROVIDER
INTERNAL
LENDER
LESSOR
OEM
OTHER
REPAIR_ORDER
SELLER
SPECIAL_USE
SUBLET
SUPPLIER
THIRD_PARTY_PROVIDER
TRUSTEE
WARRANTY_PROVIDER
WHOLESALER
}
class PaymentCategoryTypes #FAFF91 {
AMOUNT_DUE
BASE
COUPON
CREDIT
DEFERRED
DISCOUNT
FEE
FULL_PAYMENT
INSTALLMENT
INSURANCE
INVENTORY
OTHER
OVERAGE
PAYMENT
REBATE
REWARD
SPLIT
SUBSIDIZED
SURCHARGE
TAX
TIP
}
class PriceClassTypes #FAFF91 {
APPROVED
CALCULATED_COST
CHARGE_AMOUNT
COMMERCIAL_COST
CO_INSURANCE
CO_PAYMENT
DEDUCTIBLE
DIRECT_COST
EDUCATIONAL
ENTERPRISE
EXPENSE
EXPENSE_COST
GOVERNMENT
HANDLING
INDIRECT_COST
INVOICE
LABOR_COST
LOYALTY_MEMBER
MATERIAL_COST
MSRP
NEW_CUSTOMER
OFFER
OTHER
PAID
PARTS_COST
PERCENTAGE
PRODUCTION_COST
PRORATED
REFUND
REQUESTED
RETAIL
SCHEDULE
SERVICE_COST
SOLD_PRICE
SUBLET_CHARGE
SUB_TOTAL
TOTAL
TRANSFER_COST
}
class PriceSensitivityTypes #FAFF91 {
ELASTIC
HIGH
INELASTIC
LOW
MEDIUM
}
class PriceTypes #FAFF91 {
ACTUAL
AFFILIATE
BUNDLE
CONTRACT
CORE
CUSTOM
CUSTOMER
DEALER
DISCOUNT
ESTIMATED
FLAT
ITEMIZED
LANDED
LICENSED
LIST
LOCATION
METERED
MONEY
MSRP
NET
ONLINE
OTHER
PERCENT
PER_UNIT
PROMOTIONAL
PURCHASE
QUANTITY
REGION
RETAIL
SALE
SEAT
STAIR_STEP
STANDARD
STORE
SUBSCRIPTION
TIER_GRADUATED
TIER_VOLUME
TRADE
USAGE
VOLUME
WHOLESALE
}
class ProductConsumptionTypes #FAFF91 {
PRE_PRODUCTION
SCRAP_STRATEGY
USE_UP_STRATEGY
}
class ProductPackageTypes #FAFF91 {
BUNDLE
CASE
COMPONENT
EACH
GROUP
ITEM
KIT
MIXED_BUNDLE
OCCURRENCE
PACK
PALLET
PRODUCT
PURE_BUNDLE
SERVICE
SET
SKU
STANDALONE
SUBSCRIPTION
UNIT
}
class ProductPriceItemTypes #FAFF91 {
CREDIT
DEPOSIT_PAID
DISCOUNT
FEE
FREIGHT
GRAND_TOTAL
ITEMS
OTHER
PACKAGING
PRODUCT
REBATE
REWARD
SERVICE_CHARGE
SHIPPING_AND_HANDLING
SUBTOTAL
SURCHARGE
TAX
TOTAL_CREDIT
TOTAL_DISCOUNTS
TOTAL_FEE
TOTAL_FREIGHT
TOTAL_REBATE
TOTAL_REWARD
TOTAL_SERVICE
TOTAL_SHIPPING
TOTAL_TAX
TOTAL_TAXES
}
class ProductStageTypes #FAFF91 {
ACTIVE
DAMAGED
DECOMMISSIONED
DISCONTINUED
FINAL_SUPERSESSION
OBSOLETE
PENDING_APPROVAL
PENDING_OBSOLESCENCE
PHASED_OUT
PRELIMINARY_SUPERSESSION
PRE_PRODUCTION
PRE_RELEASE
PROPOSED
RECALLED
SOURCING_CHALLENGE
UNDER_REVIEW
}
class ProductStatusTypes #FAFF91 {
ACTIVE
CANCELLED
DRAFT
OBSOLETE
PENDING
PILOT
RETIRED
REVIEW
SUSPENDED
TERMINATED
UNAVAILABLE
}
class SalesStatusTypes #FAFF91 {
ACTIVE
DISCONTINUED
NEW
OBSOLETE
ON_HOLD
SEASONAL
}
class ScheduleTypes #FAFF91 {
ANNOUNCEMENT
AUCTION
AVAILABILITY
BROWSE
DISCONTINUE
ECONOMY
END_OF_SERVICE
INTRO
LAST_DAY_TO_ORDER
LOCATION
PENETRATION
PREMIUM
PROMO
PUBLISH
PURCHASE
SALE
SPECIAL
SUPPORT
WITHDRAWAL
}
class UOMQuantityCategoryTypes #FAFF91 {
COUNT
DEFAULT_LEAD_TIME
DIMENSIONAL_WEIGHT
DIMENSIONS
DIMENSION_UNIT
ELECTRICAL_RATING
GROSS_VOLUME
GROSS_WEIGHT
MATERIAL
MAX_HEIGHT
MAX_LEAD_TIME
MAX_LENGTH
MAX_ORDER_QUANTITY
MAX_WEIGHT
MAX_WIDTH
MIN_HEIGHT
MIN_LENGTH
MIN_ORDER_AVAILABLE
MIN_ORDER_QUANTITY
MIN_WEIGHT
MIN_WIDTH
NET_VOLUME
NET_WEIGHT
PACKAGE_QUANTITY
SHIPPING_WEIGHT
TIME
VOLUME
WEIGHT
}
class UnitOfMeasureTypes #FAFF91 {
BI_WEEKS
BYTES
CELSIUS
CITY
COUNTRY
COUNTY
CURRENCY
CUSTOM
DATE
DATE_TIME
DAYS
DAY_OF_MONTH
DISTRICT
DURATION
FAHRENHEIT
FATHOM
FEDERAL
FEET
GALLON
GROSS
HOURS
INCH
ITEM
KELVIN
KG
KM
LB
LITER
LOCALITY
MAXIMUM
METER
MILES
MINIMUM
MINUTES
MONTHS
MULTI_YEARS
NA
NAUTICAL
NET
NONE
OCCURRENCE
OTHER
OZ
PERCENT
POINTS
POSTAL
QUARTER
QUARTERS
RANKINE
SEMI_MONTHS
SEMI_YEARS
STATE
STREET
SUB_ADMIN_AREA
SUB_LOCALITY
UNIT
UNLIMITED
WATT
WEEKS
YARD
YEARS
}
BillOfMaterial -- PartMaster
BomComponent *-- BillOfMaterial
DurationUOMTypes -- EffectivePeriod
EffectivePeriod -- BomComponent
EffectivePeriod -- PartyIdentifier
EffectivePeriod -- ProductSchedule
FinancialSplit *-- PricePlan
FinancialTransactionTypes -- FinancialSplit
GeographicBoundary *-- PricePlan
GeographicBoundary *-- ProductSchedule
HazardClassTypes *-- PartMasterRegulatory
Identifier *-- Part
Identifier *-- PartIdentifier
Identifier *-- PartInventory
Identifier *-- PartMaster
Identifier *-- PartMasterProfile
Identifier *-- PartSpecification
Identifier *-- Party
Identifier *-- TextualDetail
InventoryStatusTypes -- PartInventory
LedgerActionTypes -- FinancialSplit
LifecycleEventTypes -- LifecycleEvent
LifecycleEventTypes -- PartMaster
LifecycleEventTypes -- PricePlan
LifecycleEvent *-- PricePlan
LocationTypes -- GeographicBoundary
NarrativeUomTypes -- ProductSchedule
PartCategory *-- PartMaster
PartConditionGradeTypes *-- PartSpecification
PartConditionGradeTypes -- Part
PartConditionTypes *-- PartSpecification
PartConditionTypes -- Part
PartHazardPackingGroupTypes -- PartMasterRegulatory
PartIdentifierTypes -- PartIdentifier
PartIdentifier *-- BillOfMaterial
PartIdentifier *-- BomComponent
PartIdentifier *-- Part
PartIdentifier *-- PartInventory
PartIdentifier *-- PartMaster
PartInventory *-- PartMaster
PartInventoryEvent *-- PartInventory
PartInventoryMetricTypes -- PartInventoryMetric
PartInventoryMetric *-- PartInventory
PartInventoryOrderTypes -- PartInventoryEvent
PartLifecycle *-- Part
PartLifecycle *-- PartMaster
PartMasterProfile -- PartMaster
PartMasterRegulatory -- PartMaster
PartNameTypes -- PartName
PartNameTypes -- PartSpecification
PartName *-- PartIdentifier
PartName *-- PartMaster
PartName *-- SuperSession
PartOrderConfigTypes -- SuperSession
PartSpecification -- BillOfMaterial
PartSpecification -- BomComponent
PartSpecification *-- PartMasterProfile
PartStatusTypes *-- Part
PartStatusTypes *-- PartLifecycle
PartStatusTypes *-- SuperSession
PartStatusTypes -- Part
Part *-- PartInventory
Party -- PartyIdentifier
PartyIdentifier *-- PartMaster
PartyIdentifier *-- PricePlan
PartyIdentifier *-- SuperSession
PartyRelationshipTypes *-- PartyIdentifier
PartyServiceTypes *-- Party
PartyTypes *-- Party
PayeeTypes -- PriceTier
PaymentCategoryTypes -- PriceTier
Price -- FinancialSplit
PriceClassTypes *-- PricePlan
PriceClassTypes *-- PriceTier
PricePlan *-- PartMaster
PriceSensitivity -- PricePlan
PriceSensitivity -- PriceTier
PriceSensitivityTypes -- PriceSensitivity
PriceTier *-- PricePlan
PriceTypes *-- Price
PriceTypes *-- PricePlan
Price *-- Part
Price *-- PartInventory
ProductConsumptionTypes -- SuperSession
ProductPackageTypes -- PartSpecification
ProductPriceItemTypes -- FinancialSplit
ProductSchedule *-- PricePlan
ProductStageTypes -- PartMaster
ProductStageTypes -- SuperSession
ProductStatusTypes -- BillOfMaterial
ProductStatusTypes -- BomComponent
SalesStatusTypes -- PartMasterProfile
ScheduleTypes -- ProductSchedule
SuperSession *-- PartLifecycle
TextualDetail *-- BomComponent
TextualDetail *-- PartCategory
TextualDetail *-- PartMaster
UOMQuantityCategoryTypes -- UnitOfMeasure
UnitOfMeasureTypes -- GeographicBoundary
UnitOfMeasure *-- PartMaster
UnitOfMeasure *-- PartSpecification
@enduml
